Coordinates
version=1
nRows=14
nColumns=24
inDegrees=yes

Units are S.I. units (second, meters, Newtons, ...)
If the header above contains a line with 'inDegrees', this indicates whether rotational values are in degrees (yes) or radians (no).

endheader
time	pelvis_tilt	pelvis_list	pelvis_rotation	pelvis_tx	pelvis_ty	pelvis_tz	hip_flexion_r	hip_adduction_r	hip_rotation_r	knee_angle_r	ankle_angle_r	subtalar_angle_r	mtp_angle_r	hip_flexion_l	hip_adduction_l	hip_rotation_l	knee_angle_l	ankle_angle_l	subtalar_angle_l	mtp_angle_l	lumbar_extension	lumbar_bending	lumbar_rotation
      1.83000000	     12.60361272	      1.21947333	   -181.91554122	      0.25552130	      0.80211626	     -1.21062926	     35.99042853	    -18.12304987	    -24.96595890	    -42.00586593	     12.00657829	     11.15825709	      0.00000000	     35.86425899	    -23.17682268	    -25.53477246	    -43.13625746	     12.46106716	     12.63329575	      0.00000000	     -2.50960120	      1.88261421	      1.86831780
      1.83500000	     12.62876239	      1.15114356	   -181.93479305	      0.25477796	      0.80440283	     -1.21031477	     35.54053146	    -17.98699323	    -25.04188968	    -41.09006969	     11.56252517	     11.14802158	      0.00000000	     35.38207592	    -22.83519650	    -25.64522444	    -42.24909529	     12.05984783	     12.37399167	      0.00000000	     -2.33980846	      1.84401800	      1.82805655
      1.84000000	     12.63579183	      1.26174944	   -182.01122762	      0.25377192	      0.80672717	     -1.21020404	     34.99799397	    -17.63109002	    -25.18180686	    -40.11298945	     11.11745016	     11.10112530	      0.00000000	     34.88574368	    -22.73108267	    -25.74778504	    -41.39288634	     11.65508820	     12.18942453	      0.00000000	     -2.16867292	      1.99086218	      1.86131579
      1.84500000	     12.57174233	      1.25729740	   -182.01017412	      0.25292656	      0.80891905	     -1.21005598	     34.43567611	    -17.43730796	    -25.29114656	    -39.22039586	     10.69911910	     11.05594049	      0.00000000	     34.34536294	    -22.47352877	    -25.82050234	    -40.55012517	     11.26512837	     11.98461843	      0.00000000	     -2.09893188	      1.98697302	      1.81219027
      1.85000000	     12.55948125	      1.23651778	   -182.00638375	      0.25211193	      0.81103681	     -1.20986052	     33.92544044	    -17.25675645	    -25.38794262	    -38.30517795	     10.27028002	     11.01552859	      0.00000000	     33.85281206	    -22.18453539	    -25.88102478	    -39.68821814	     10.90436806	     11.79976723	      0.00000000	     -1.97150469	      1.97039229	      1.76260706
      1.85500000	     12.52937271	      1.20403925	   -182.01393296	      0.25119074	      0.81305546	     -1.20961536	     33.40304042	    -17.09469641	    -25.48616840	    -37.40667157	      9.83810030	     10.98064500	      0.00000000	     33.34366864	    -21.91147976	    -25.98994047	    -38.87312165	     10.56615690	     11.64686130	      0.00000000	     -1.85910330	      1.94308396	      1.73569421
      1.86000000	     12.50673477	      1.18564622	   -182.00177351	      0.25034456	      0.81503224	     -1.20952360	     32.89865869	    -16.90562991	    -25.54874114	    -36.52810705	      9.43473158	     10.89934614	      0.00000000	     32.86608546	    -21.64114335	    -26.02829898	    -38.04967197	     10.19778053	     11.46077910	      0.00000000	     -1.71810600	      1.93757149	      1.62446198
      1.86500000	     12.47955245	      1.19555672	   -182.02077146	      0.24954783	      0.81695588	     -1.20933509	     32.40493997	    -16.68256695	    -25.59252365	    -35.65931528	      9.02537571	     10.81112294	      0.00000000	     32.39065103	    -21.39989693	    -26.04654471	    -37.24135686	      9.84517676	     11.20188531	      0.00000000	     -1.60935814	      1.96248646	      1.59726425
      1.87000000	     12.50581091	      1.23565543	   -182.09197963	      0.24865165	      0.81875720	     -1.20907089	     31.97280955	    -16.42856216	    -25.65667330	    -34.79626033	      8.61993413	     10.73577786	      0.00000000	     31.96464782	    -21.23094216	    -26.12797797	    -36.47808792	      9.51004837	     10.98512182	      0.00000000	     -1.42924522	      2.04021124	      1.62707944
      1.87500000	     12.46182770	      1.21816518	   -182.08145601	      0.24788666	      0.82036091	     -1.20892941	     31.50501164	    -16.27925647	    -25.74930419	    -34.02956078	      8.24372093	     10.68161289	      0.00000000	     31.51321147	    -20.99486587	    -26.18096758	    -35.74767355	      9.18606786	     10.88068783	      0.00000000	     -1.34195135	      2.01363560	      1.56431143
      1.88000000	     12.43838374	      1.16628376	   -182.07300160	      0.24714166	      0.82199998	     -1.20874715	     31.03752411	    -16.12778807	    -25.74890604	    -33.18015881	      7.89236865	     10.55504293	      0.00000000	     31.06998156	    -20.67576858	    -26.13373921	    -34.97285981	      8.87157654	     10.54846283	      0.00000000	     -1.21828401	      1.97753652	      1.48729618
      1.88500000	     12.39419286	      1.20663694	   -182.08977302	      0.24626678	      0.82357400	     -1.20876746	     30.53214994	    -15.86894386	    -25.79434021	    -32.34456464	      7.53268431	     10.42971783	      0.00000000	     30.62461880	    -20.52621684	    -26.17376323	    -34.27189439	      8.56601324	     10.39889745	      0.00000000	     -1.11639569	      1.99815508	      1.46517678
      1.89000000	     12.42326926	      1.22281235	   -182.16635610	      0.24540048	      0.82496530	     -1.20851267	     30.15791746	    -15.65203822	    -25.81302646	    -31.57435129	      7.18227583	     10.33227644	      0.00000000	     30.23928771	    -20.35645361	    -26.24792145	    -33.58782350	      8.28943386	     10.19784106	      0.00000000	     -0.92948296	      2.04511567	      1.52019166
      1.89500000	     12.40363509	      1.25208545	   -182.20862709	      0.24464386	      0.82645039	     -1.20839736	     29.72599210	    -15.42823411	    -25.88784344	    -30.80351988	      6.81212901	     10.22687211	      0.00000000	     29.82998639	    -20.20061103	    -26.31490910	    -32.91160125	      7.96148650	      9.99889682	      0.00000000	     -0.81392767	      2.09563807	      1.53594706
